<svg id="visual" viewBox="0 0 900 600" width="900" height="600" xmlns="http://www.w3.org/2000/svg" xmlns:xlink="http://www.w3.org/1999/xlink" version="1.1"><path d="M0 163L82 151L164 85L245 79L327 127L409 55L491 67L573 151L655 121L736 139L818 121L900 55L900 0L818 0L736 0L655 0L573 0L491 0L409 0L327 0L245 0L164 0L82 0L0 0Z" fill="#00cc8e"></path><path d="M0 361L82 229L164 265L245 307L327 223L409 217L491 343L573 331L655 319L736 229L818 295L900 283L900 53L818 119L736 137L655 119L573 149L491 65L409 53L327 125L245 77L164 83L82 149L0 161Z" fill="#00b98a"></path><path d="M0 403L82 325L164 307L245 361L327 289L409 283L491 385L573 403L655 385L736 319L818 331L900 349L900 281L818 293L736 227L655 317L573 329L491 341L409 215L327 221L245 305L164 263L82 227L0 359Z" fill="#00a784"></path><path d="M0 481L82 397L164 403L245 457L327 343L409 403L491 475L573 451L655 427L736 421L818 457L900 427L900 347L818 329L736 317L655 383L573 401L491 383L409 281L327 287L245 359L164 305L82 323L0 401Z" fill="#00957c"></path><path d="M0 601L82 601L164 601L245 601L327 601L409 601L491 601L573 601L655 601L736 601L818 601L900 601L900 425L818 455L736 419L655 425L573 449L491 473L409 401L327 341L245 455L164 401L82 395L0 479Z" fill="#038373"></path></svg>